<svg xmlns="http://www.w3.org/2000/svg" width="280" height="80" viewBox="0 0 280 80" role="img" aria-labelledby="title">
  <title id="title">Bitvavo</title>
  <rect width="280" height="80" rx="8" fill="#ffffff"/>
  <g fill="#0f5fff">
    <path d="M34 22h16.5c12.3 0 20.8 7.7 20.8 18.1 0 10.6-8.5 18.4-20.8 18.4H34V22zm16.1 27.4c6.4 0 10.7-3.8 10.7-9.3 0-5.4-4.3-9.1-10.7-9.1h-5.8v18.4h5.8z"/>
    <path d="M74.7 40.1c0-11.1 8.7-19.1 20.6-19.1 7 0 12.8 2.8 16.5 7.7l-8.4 6.4c-2-2.7-4.7-4.3-8-4.3-5.8 0-9.9 4-9.9 9.3 0 5.4 4.1 9.4 9.9 9.4 3.3 0 6-1.5 8-4.3l8.4 6.4c-3.7 5-9.5 7.8-16.5 7.8-11.9 0-20.6-8.1-20.6-19.3z"/>
  </g>
  <text x="122" y="50" fill="#101827" font-family="Inter, Arial, sans-serif" font-size="34" font-weight="800" letter-spacing="0">bitvavo</text>
</svg>
